# xmcd
#
# Track frame offsets:
# 150
# 10150
# 21310
# 32558
# 45321
# 57284
# 67356
# 80953
# 97385
# 111870
# 124329
# 145846
# 161858
# 175524
# 186566
#
# Disc length: 2676 seconds
#
# Revision: 0
# Processed by: cddbd v1.5.2PL0 Copyright (c) Steve Scherf et al.
# Submitted via: Audion 3.0.2 (http://www.panic.com/audion/)
#
DISCID=de0a720f
DTITLE=Compilation - Country Praise
DYEAR=1900
DGENRE=
TTITLE0=An Evening Prayer
TTITLE1=Lord You've Been Mighty Good To Me
TTITLE2=Dear God
TTITLE3=Lowers For Mama
TTITLE4=I'll Fly Away
TTITLE5=On THe Wings Of A Dove
TTITLE6=Amazing Grace
TTITLE7=Softly And Tenderly
TTITLE8=Rock Of Ages
TTITLE9=Just A Closer Walk With Thee
TTITLE10=How Great Thou Art
TTITLE11=What A Friend We Have In Jesus
TTITLE12=He Lives
TTITLE13=I Go To Church On Sunday
TTITLE14=When The Role Is Called Up Yonder
EXTD=
EXTT0=
EXTT1=
EXTT2=
EXTT3=
EXTT4=
EXTT5=
EXTT6=
EXTT7=
EXTT8=
EXTT9=
EXTT10=
EXTT11=
EXTT12=
EXTT13=
EXTT14=
PLAYORDER=
